<mxfile host="65bd71144e">
    <diagram id="Gviu_kfvcQEleoJT5ofz" name="Page-1">
        <mxGraphModel dx="1953" dy="1024" grid="1" gridSize="10" guides="1" tooltips="1" connect="1" arrows="1" fold="1" page="1" pageScale="1" pageWidth="1100" pageHeight="850" math="0" shadow="0">
            <root>
                <mxCell id="0"/>
                <mxCell id="1" parent="0"/>
                <mxCell id="2" value="" style="endArrow=classic;html=1;dashed=1;" edge="1" parent="1">
                    <mxGeometry width="50" height="50" relative="1" as="geometry">
                        <mxPoint x="139.5" y="337.5" as="sourcePoint"/>
                        <mxPoint x="139.5" y="275" as="targetPoint"/>
                    </mxGeometry>
                </mxCell>
                <mxCell id="5" value="Push&lt;br&gt;" style="edgeLabel;html=1;align=center;verticalAlign=middle;resizable=0;points=[];" vertex="1" connectable="0" parent="2">
                    <mxGeometry x="-0.3792" relative="1" as="geometry">
                        <mxPoint as="offset"/>
                    </mxGeometry>
                </mxCell>
                <mxCell id="4" value="" style="dashed=0;outlineConnect=0;html=1;align=center;labelPosition=center;verticalLabelPosition=bottom;verticalAlign=top;shape=mxgraph.weblogos.github" vertex="1" parent="1">
                    <mxGeometry x="110" y="180" width="60" height="65" as="geometry"/>
                </mxCell>
                <mxCell id="6" value="Source Code Repository" style="text;html=1;align=center;verticalAlign=middle;resizable=0;points=[];autosize=1;strokeColor=none;fillColor=none;" vertex="1" parent="1">
                    <mxGeometry x="65" y="245" width="150" height="30" as="geometry"/>
                </mxCell>
                <mxCell id="7" value="" style="endArrow=classic;html=1;dashed=1;" edge="1" parent="1" source="4">
                    <mxGeometry width="50" height="50" relative="1" as="geometry">
                        <mxPoint x="200" y="160" as="sourcePoint"/>
                        <mxPoint x="140" y="140" as="targetPoint"/>
                    </mxGeometry>
                </mxCell>
                <mxCell id="10" value="" style="edgeStyle=none;html=1;dashed=1;entryX=0;entryY=0.25;entryDx=0;entryDy=0;" edge="1" parent="1" source="8" target="9">
                    <mxGeometry relative="1" as="geometry"/>
                </mxCell>
                <mxCell id="8" value="CI/CD" style="rounded=0;whiteSpace=wrap;html=1;" vertex="1" parent="1">
                    <mxGeometry x="105" y="110" width="70" height="30" as="geometry"/>
                </mxCell>
                <mxCell id="9" value="" style="whiteSpace=wrap;html=1;rounded=1;" vertex="1" parent="1">
                    <mxGeometry x="230" y="50" width="270" height="300" as="geometry"/>
                </mxCell>
                <mxCell id="12" value="Account &lt;br&gt;personalizzato&lt;br&gt;" style="sketch=0;outlineConnect=0;fontColor=#232F3E;gradientColor=none;strokeColor=#232F3E;fillColor=#ffffff;dashed=0;verticalLabelPosition=bottom;verticalAlign=top;align=center;html=1;fontSize=12;fontStyle=0;aspect=fixed;shape=mxgraph.aws4.resourceIcon;resIcon=mxgraph.aws4.lambda_function;rounded=1;" vertex="1" parent="1">
                    <mxGeometry x="250" y="60" width="50" height="50" as="geometry"/>
                </mxCell>
                <mxCell id="14" value="Login&lt;span style=&quot;color: rgba(0, 0, 0, 0); font-family: monospace; font-size: 0px; text-align: start;&quot;&gt;%3CmxGraphModel%3E%3Croot%3E%3CmxCell%20id%3D%220%22%2F%3E%3CmxCell%20id%3D%221%22%20parent%3D%220%22%2F%3E%3CmxCell%20id%3D%222%22%20value%3D%22Account%20%26lt%3Bbr%26gt%3Bpersonalizzato%26lt%3Bbr%26gt%3B%22%20style%3D%22sketch%3D0%3BoutlineConnect%3D0%3BfontColor%3D%23232F3E%3BgradientColor%3Dnone%3BstrokeColor%3D%23232F3E%3BfillColor%3D%23ffffff%3Bdashed%3D0%3BverticalLabelPosition%3Dbottom%3BverticalAlign%3Dtop%3Balign%3Dcenter%3Bhtml%3D1%3BfontSize%3D12%3BfontStyle%3D0%3Baspect%3Dfixed%3Bshape%3Dmxgraph.aws4.resourceIcon%3BresIcon%3Dmxgraph.aws4.lambda_function%3Brounded%3D1%3B%22%20vertex%3D%221%22%20parent%3D%221%22%3E%3CmxGeometry%20x%3D%22250%22%20y%3D%2270%22%20width%3D%2250%22%20height%3D%2250%22%20as%3D%22geometry%22%2F%3E%3C%2FmxCell%3E%3C%2Froot%3E%3C%2FmxGraphModel%3E&lt;/span&gt;" style="sketch=0;outlineConnect=0;fontColor=#232F3E;gradientColor=none;strokeColor=#232F3E;fillColor=#ffffff;dashed=0;verticalLabelPosition=bottom;verticalAlign=top;align=center;html=1;fontSize=12;fontStyle=0;aspect=fixed;shape=mxgraph.aws4.resourceIcon;resIcon=mxgraph.aws4.lambda_function;rounded=1;" vertex="1" parent="1">
                    <mxGeometry x="340" y="60" width="50" height="50" as="geometry"/>
                </mxCell>
                <mxCell id="15" value="Definizione &lt;br&gt;algoritmi" style="sketch=0;outlineConnect=0;fontColor=#232F3E;gradientColor=none;strokeColor=#232F3E;fillColor=#ffffff;dashed=0;verticalLabelPosition=bottom;verticalAlign=top;align=center;html=1;fontSize=12;fontStyle=0;aspect=fixed;shape=mxgraph.aws4.resourceIcon;resIcon=mxgraph.aws4.lambda_function;rounded=1;" vertex="1" parent="1">
                    <mxGeometry x="430" y="60" width="50" height="50" as="geometry"/>
                </mxCell>
                <mxCell id="16" value="Inserimento&lt;br&gt;portfolio&lt;br&gt;" style="sketch=0;outlineConnect=0;fontColor=#232F3E;gradientColor=none;strokeColor=#232F3E;fillColor=#ffffff;dashed=0;verticalLabelPosition=bottom;verticalAlign=top;align=center;html=1;fontSize=12;fontStyle=0;aspect=fixed;shape=mxgraph.aws4.resourceIcon;resIcon=mxgraph.aws4.lambda_function;rounded=1;" vertex="1" parent="1">
                    <mxGeometry x="250" y="150" width="50" height="50" as="geometry"/>
                </mxCell>
                <mxCell id="17" value="Casella di &lt;br&gt;feedback" style="sketch=0;outlineConnect=0;fontColor=#232F3E;gradientColor=none;strokeColor=#232F3E;fillColor=#ffffff;dashed=0;verticalLabelPosition=bottom;verticalAlign=top;align=center;html=1;fontSize=12;fontStyle=0;aspect=fixed;shape=mxgraph.aws4.resourceIcon;resIcon=mxgraph.aws4.lambda_function;rounded=1;" vertex="1" parent="1">
                    <mxGeometry x="340" y="150" width="50" height="50" as="geometry"/>
                </mxCell>
                <mxCell id="18" value="Consiglio &lt;br&gt;video" style="sketch=0;outlineConnect=0;fontColor=#232F3E;gradientColor=none;strokeColor=#232F3E;fillColor=#ffffff;dashed=0;verticalLabelPosition=bottom;verticalAlign=top;align=center;html=1;fontSize=12;fontStyle=0;aspect=fixed;shape=mxgraph.aws4.resourceIcon;resIcon=mxgraph.aws4.lambda_function;rounded=1;" vertex="1" parent="1">
                    <mxGeometry x="430" y="150" width="50" height="50" as="geometry"/>
                </mxCell>
                <mxCell id="21" value="Creare &lt;br&gt;discussioni" style="sketch=0;outlineConnect=0;fontColor=#232F3E;gradientColor=none;strokeColor=#232F3E;fillColor=#ffffff;dashed=0;verticalLabelPosition=bottom;verticalAlign=top;align=center;html=1;fontSize=12;fontStyle=0;aspect=fixed;shape=mxgraph.aws4.resourceIcon;resIcon=mxgraph.aws4.lambda_function;rounded=1;" vertex="1" parent="1">
                    <mxGeometry x="250" y="250" width="50" height="50" as="geometry"/>
                </mxCell>
                <mxCell id="22" value="Referenze a&lt;br&gt;mostre/eventi" style="sketch=0;outlineConnect=0;fontColor=#232F3E;gradientColor=none;strokeColor=#232F3E;fillColor=#ffffff;dashed=0;verticalLabelPosition=bottom;verticalAlign=top;align=center;html=1;fontSize=12;fontStyle=0;aspect=fixed;shape=mxgraph.aws4.resourceIcon;resIcon=mxgraph.aws4.lambda_function;rounded=1;" vertex="1" parent="1">
                    <mxGeometry x="340" y="250" width="50" height="50" as="geometry"/>
                </mxCell>
                <mxCell id="23" value="Gestione&lt;br&gt;tag" style="sketch=0;outlineConnect=0;fontColor=#232F3E;gradientColor=none;strokeColor=#232F3E;fillColor=#ffffff;dashed=0;verticalLabelPosition=bottom;verticalAlign=top;align=center;html=1;fontSize=12;fontStyle=0;aspect=fixed;shape=mxgraph.aws4.resourceIcon;resIcon=mxgraph.aws4.lambda_function;rounded=1;" vertex="1" parent="1">
                    <mxGeometry x="430" y="250" width="50" height="50" as="geometry"/>
                </mxCell>
                <mxCell id="27" value="" style="edgeStyle=none;html=1;startArrow=classic;startFill=1;" edge="1" parent="1" source="24" target="26">
                    <mxGeometry relative="1" as="geometry"/>
                </mxCell>
                <mxCell id="24" value="" style="sketch=0;outlineConnect=0;fontColor=#232F3E;gradientColor=none;fillColor=#232F3D;strokeColor=none;dashed=0;verticalLabelPosition=bottom;verticalAlign=top;align=center;html=1;fontSize=12;fontStyle=0;aspect=fixed;pointerEvents=1;shape=mxgraph.aws4.mobile_client;rounded=1;" vertex="1" parent="1">
                    <mxGeometry x="800" y="57.5" width="41" height="78" as="geometry"/>
                </mxCell>
                <mxCell id="25" value="Client" style="text;html=1;align=center;verticalAlign=middle;resizable=0;points=[];autosize=1;strokeColor=none;fillColor=none;" vertex="1" parent="1">
                    <mxGeometry x="795.5" y="143" width="50" height="30" as="geometry"/>
                </mxCell>
                <mxCell id="30" value="" style="edgeStyle=none;html=1;startArrow=classic;startFill=1;" edge="1" parent="1" source="26" target="29">
                    <mxGeometry relative="1" as="geometry"/>
                </mxCell>
                <mxCell id="26" value="" style="outlineConnect=0;dashed=0;verticalLabelPosition=bottom;verticalAlign=top;align=center;html=1;shape=mxgraph.aws3.cognito;fillColor=#AD688B;gradientColor=none;rounded=1;" vertex="1" parent="1">
                    <mxGeometry x="680" y="50" width="76.5" height="93" as="geometry"/>
                </mxCell>
                <mxCell id="28" value="Cognito" style="text;html=1;align=center;verticalAlign=middle;resizable=0;points=[];autosize=1;strokeColor=none;fillColor=none;" vertex="1" parent="1">
                    <mxGeometry x="688.25" y="143" width="60" height="30" as="geometry"/>
                </mxCell>
                <mxCell id="31" value="" style="edgeStyle=none;html=1;entryX=0.998;entryY=0.158;entryDx=0;entryDy=0;entryPerimeter=0;startArrow=classic;startFill=1;" edge="1" parent="1" source="29" target="9">
                    <mxGeometry relative="1" as="geometry"/>
                </mxCell>
                <mxCell id="29" value="" style="outlineConnect=0;dashed=0;verticalLabelPosition=bottom;verticalAlign=top;align=center;html=1;shape=mxgraph.aws3.api_gateway;fillColor=#D9A741;gradientColor=none;rounded=1;" vertex="1" parent="1">
                    <mxGeometry x="560" y="50" width="76.5" height="93" as="geometry"/>
                </mxCell>
                <mxCell id="32" value="API Gateaway" style="text;html=1;align=center;verticalAlign=middle;resizable=0;points=[];autosize=1;strokeColor=none;fillColor=none;" vertex="1" parent="1">
                    <mxGeometry x="550" y="135" width="100" height="30" as="geometry"/>
                </mxCell>
                <mxCell id="34" value="" style="edgeStyle=none;html=1;startArrow=classic;startFill=1;" edge="1" parent="1" source="33" target="25">
                    <mxGeometry relative="1" as="geometry"/>
                </mxCell>
                <mxCell id="33" value="" style="sketch=0;points=[[0,0,0],[0.25,0,0],[0.5,0,0],[0.75,0,0],[1,0,0],[0,1,0],[0.25,1,0],[0.5,1,0],[0.75,1,0],[1,1,0],[0,0.25,0],[0,0.5,0],[0,0.75,0],[1,0.25,0],[1,0.5,0],[1,0.75,0]];outlineConnect=0;fontColor=#232F3E;gradientColor=#4AB29A;gradientDirection=north;fillColor=#116D5B;strokeColor=#ffffff;dashed=0;verticalLabelPosition=bottom;verticalAlign=top;align=center;html=1;fontSize=12;fontStyle=0;aspect=fixed;shape=mxgraph.aws4.resourceIcon;resIcon=mxgraph.aws4.personalize;rounded=1;" vertex="1" parent="1">
                    <mxGeometry x="781.5" y="230" width="78" height="78" as="geometry"/>
                </mxCell>
                <mxCell id="35" value="" style="endArrow=none;html=1;exitX=0;exitY=0.5;exitDx=0;exitDy=0;exitPerimeter=0;startArrow=classic;startFill=1;endFill=0;" edge="1" parent="1" source="33">
                    <mxGeometry width="50" height="50" relative="1" as="geometry">
                        <mxPoint x="280" y="320" as="sourcePoint"/>
                        <mxPoint x="500" y="270" as="targetPoint"/>
                    </mxGeometry>
                </mxCell>
                <mxCell id="37" value="Amazon personalize" style="text;html=1;strokeColor=none;fillColor=none;align=center;verticalAlign=middle;whiteSpace=wrap;rounded=0;" vertex="1" parent="1">
                    <mxGeometry x="790.5" y="308" width="60" height="30" as="geometry"/>
                </mxCell>
                <mxCell id="39" value="" style="endArrow=classic;startArrow=classic;html=1;exitX=0.5;exitY=1;exitDx=0;exitDy=0;" edge="1" parent="1" source="9" target="40">
                    <mxGeometry width="50" height="50" relative="1" as="geometry">
                        <mxPoint x="480" y="300" as="sourcePoint"/>
                        <mxPoint x="365" y="410" as="targetPoint"/>
                    </mxGeometry>
                </mxCell>
                <mxCell id="40" value="" style="dashed=0;outlineConnect=0;html=1;align=center;labelPosition=center;verticalLabelPosition=bottom;verticalAlign=top;shape=mxgraph.weblogos.mongodb;rounded=1;" vertex="1" parent="1">
                    <mxGeometry x="344.4" y="400" width="41.2" height="86.2" as="geometry"/>
                </mxCell>
                <mxCell id="41" value="MongoDB" style="text;html=1;align=center;verticalAlign=middle;resizable=0;points=[];autosize=1;strokeColor=none;fillColor=none;" vertex="1" parent="1">
                    <mxGeometry x="329.4" y="486.2" width="80" height="30" as="geometry"/>
                </mxCell>
                <mxCell id="43" value="" style="edgeStyle=none;html=1;startArrow=none;startFill=0;endArrow=classic;endFill=1;" edge="1" parent="1" source="42" target="40">
                    <mxGeometry relative="1" as="geometry"/>
                </mxCell>
                <mxCell id="42" value="" style="outlineConnect=0;dashed=0;verticalLabelPosition=bottom;verticalAlign=top;align=center;html=1;shape=mxgraph.aws3.glue;fillColor=#F58534;gradientColor=none;rounded=1;" vertex="1" parent="1">
                    <mxGeometry x="478.63" y="393.6" width="82.5" height="99" as="geometry"/>
                </mxCell>
                <mxCell id="45" value="" style="edgeStyle=none;html=1;startArrow=none;startFill=0;endArrow=classic;endFill=1;exitX=0;exitY=0.5;exitDx=0;exitDy=0;exitPerimeter=0;" edge="1" parent="1" source="46" target="42">
                    <mxGeometry relative="1" as="geometry">
                        <mxPoint x="649.63" y="445.59753521126754" as="sourcePoint"/>
                    </mxGeometry>
                </mxCell>
                <mxCell id="46" value="" style="outlineConnect=0;dashed=0;verticalLabelPosition=bottom;verticalAlign=top;align=center;html=1;shape=mxgraph.aws3.s3;fillColor=#E05243;gradientColor=none;rounded=1;" vertex="1" parent="1">
                    <mxGeometry x="641.38" y="396.6" width="76.5" height="93" as="geometry"/>
                </mxCell>
                <mxCell id="47" value="S3 Bucket" style="text;html=1;align=center;verticalAlign=middle;resizable=0;points=[];autosize=1;strokeColor=none;fillColor=none;" vertex="1" parent="1">
                    <mxGeometry x="637.88" y="486.2" width="80" height="30" as="geometry"/>
                </mxCell>
                <mxCell id="48" value="Glue" style="text;html=1;align=center;verticalAlign=middle;resizable=0;points=[];autosize=1;strokeColor=none;fillColor=none;" vertex="1" parent="1">
                    <mxGeometry x="494.63" y="492.59999999999997" width="50" height="30" as="geometry"/>
                </mxCell>
                <mxCell id="50" value="" style="edgeStyle=none;html=1;startArrow=none;startFill=0;endArrow=classic;endFill=1;" edge="1" parent="1" target="46">
                    <mxGeometry relative="1" as="geometry">
                        <mxPoint x="790.5" y="443.0999999999999" as="sourcePoint"/>
                    </mxGeometry>
                </mxCell>
                <mxCell id="52" value="" style="shape=image;verticalLabelPosition=bottom;labelBackgroundColor=default;verticalAlign=top;aspect=fixed;imageAspect=0;image=data:image/png,iVBORw0KGgoAAAANSUhEUgAAAskAAADpCAYAAADWBqryAAAAAXNSR0IArs4c6QAAADhlWElmTU0AKgAAAAgAAYdpAAQAAAABAAAAGgAAAAAAAqACAAQAAAABAAACyaADAAQAAAABAAAA6QAAAADGQLnbAAArnklEQVR4Ae3dC5QkVZng8Xsjs/oFSDf9qsyqLBGY7noAZ469e3ZlVsUZlF3ZEfeMcxxBYREVBQEZHMAHgnAGcR1gwAWVcY6Mog2t7s7gwO6eEQ6OsDC4ONiQVQ000FRVZlZ1QzcoTXc9Mu5+UQ1NU11V+YrIuDfin+dwrIq4j+/+bglfRd24Vyk+CCCAAAIIIIAAAggggAACCCCAAAIIIIAAAggggAACCCCAAAIIIIAAAggggAACCCCAAAIIIIAAAggggAACCCCAAAIIIIAAAggggAACCCCAAAIIIIAAAggggAACCCCAAAIIIIAAAggggAACCCCAAAIIIIAAAggggAACCCCAAAIIIIAAAggggAACCCCAAAIIIIAAAggggAACCCCAAAIIIIAAAggggAACCCCAAAIIIIAAAggggAACCCCAAAIIIIAAAggggAACCCCAAAIIIIAAAggggAACCCCAAAIIIIAAAggggAACCCCAAAIIIIAAAggggAACCCCAAAIIIIAAAggggAACCCCAAAIIIIAAAggggAACCCCAAAIIIIAAAggggAACCCCAAAIIIIAAAggggAACCCCAAAIIIIAAAggggAACCCCAAAIIIIAAAggggAACCCCAAAIIIIAAAggggAACCCCAAAIIIIAAAggggAACCCCAAAIIIIAAAghYJ6DLAz3GuqgIKB0Cxvyv/ODI+xca7Njxaw/xq4tfWagM9xBoVcAYdVXX4PAV9bQj/878lJT7Tj1lKRO9gDGmrLTeppV5Xnp7Vsn/Gt/b1qH8bWuGRp+OPoLk9BD8+7ZaXfSkVrrLylEZc738N+PiOGLbPrC6c1ot2aqUPiSO/mv1qX1zXm5o5JZa5bjfmEC2seKURgABBBBAwB4BrXVeopF/9An7opIUz1NqWnlKfqFRRpmSNuo5SaSfk0T6aVU1v8xtGb3fnhHYE0nn5vHdYwNdZ/gqc689Ub0pkovGe7t+snZL6aE3XW3DN5Igb7Q1QVbGPECCHM0PAUlyNK60igACCCBggcDMU1Gtgiej/8EorVRGq9JAYY989YDxzc+18e7Nbxl+1IJQrQihs1i6r9Rf+J788nGWFQEdGIQEVfW8O8r5fF++XH71wFtRfl3q7z5fEuQTo+yj2bbll8A9onJ6s/Wpt7AASfLCPtxFAAEEEEiYgCTOS2VI79Wefm8wNEkKd8q1+5Tx/8/iqVc3rdy687cJG3JDw1kyuftzE4sPPUUqrWmoYjsKa92jlmdvUGV1Tju6G1/Xc9S0Uv+tHX0104dn1OW5wfJwM3WpU1tA/ijFBwEEEECgfgGf9zjqx3KipDygPEIeMn9Ied7fSHL4sjxpvkv++Yg58sglTgwg5CCDXxK079v3JPn1cWr1qUpv97tf/zaq/5X/o+tqh9qktbLy50DepXisc3DkhqjGT7tKFm3xQQABBBBoQMCTv9TzSbKAPFX+Y/nnR+Vl1VK5v/BXwdPEJI93rrHlhkbvkT/l3znXPRuuGc/buGP9qsOijKXS33OZtL8hyj6ab9tMa2/qNPmXkd98G9SsJUCSXEuI+wgggMCbBHiS/CaOBH+z7wmzvlieJj5T7u+5u9LXveBuPEmjOMTTn5HdQ3ZaOS6tclOZpd+OKrbS+vx6pc1VUbXfaruSHF+Vf6Iy1Go71F9YgCR5YR/uIoAAAgggIH94V++Xp5d3y/rlpyt9hXPl5bFlSWdZ/vjwLhn3Z60dp9anybKYD4QdnyyzyKhsZpNMup3vbRk12FkcuSbscdPewQIkyQebcAUBBBBYQIDlFgvgJP6WPF0+xnj6ZrUi+1x5oHCROUYtTvKgu4ojsvWZutveMerbyuvyq8KMr9JfuEqW2xwfZpvhtWWqGV0NlllUw2uTluYTIEmeT4brCCCAAAIIzC8gOz/o6yuLerbJUowL5i/m/h09MXmWjOJlG0ciyeIK1ZG5PazYyn35t0tbwVpkOz/GfGNtsfQbO4NLXlQkycmbU0aEAAIIINAuAa06ZUnCjXJwybPlvp6PyZ/qE/ff1dzWsR3G92M56a6+adQnVwZ6zqyv7PylZv4q4MkyCx0cR2PfR9aHb80tHf2KfZElNyIrfxCSy83IEEDAfQFe3HN/DiMZwdskPf6+/Kl+82tPIyPpJK5Gu4ZG/zY42S2u/mv1K9uh3RQcHV2r3EL35a8Csh+yPnqhMrHdkwxZFnqdph9VU7HFkMKOSZJTOOkMGQEEWhFgTXIreomvq/WA8rIPyxKMLyTuqbKc7Bac8GblHGr1ln1HRzcXnRx3/Q75i4C9y2a0uSlXHPlVc6OjVrMCJMnNylEPAQQQQACBuQU6JOG6RpZg/HOS9ljOF+VkN2MunXvINlzVJ1YGCuc1GkmwU0lw3HWj9dpW3qjnc7uz9q6TbhtE+zsiSW6/OT0igAACCKRAQF4q+4PprCqWBnoundlWLAFj7hoc/aYkyo/YOhTf6IYPfzHLM9+Udcg9to7JaHW63rZtr63xJTkukuQkzy5jQwABBBCIVSA40liS5WtlrfJjMwdUxBpNOJ1nPHWarAGeDKe1cFsJvIOjpOWXEmGv/Sn3Ft4n2/p9vHbJ2Er8TVdx+MHYek95xyTJKf8BYPgIIIAAAm0Q0PpYnck+Uu4rvKsNvUXaxdonRp6RFNTmXRY2yFKXS2oh7Dpy+XI5NiS07eNq9dfofVn/XfIyExc1Wo/y4QmQJIdnSUsIIIAAAgjMLyAvl8kOGPcGJ/bNX8iNO/ni8DfkafJj1kZr1FW1ntzvWXbYbfLAebWtY8go/4zOzeO7bY0vDXGRJKdhlhkjAggggIAlAjobnNgnp/XdYklATYUhaxl87U2dppSZbqqBiCvJsotFwdHS860FH+srfFjWIZ8acRjNN2/UDzuLpfuab4CaYQiQJIehSBsIIIAAAgg0JKA/U+4v/L3Lx1rnn6gMGaOvaWjYbSwcHC0tu11cObvL4Bjrqqe/Nfu6Ld/Llsg7l2XU+bbEk+Y4SJLTPPuMHQEEEEAgPgF5kllZXPjlaG/XyviCaK3n/ODwVcqowdZaibC2UV886HAXOcZanoSviLDXlpr2lP708seHd7XUCJVDESBJDoWRRhBAAAEEEGhGQP9b7XkPl/tyb22mdtx1JNmsZnQ1WHZRjTuWOfsPjpiWo6Zff2Jf6us+W9YhnzxnWTsu3p0bHP6xHaEQBUkyPwMIIIAAAgjEKCBbkB2jvI5HZJ3ssTGG0XTXa4ul3xilr2+6gcgr6qPlif3XSsfmC9rTN0beXfMdvKwnJs9qvjo1wxYgSQ5blPYQQAABBBBoXGCN7+kHxnq7j2u8avw18rs92RLOPBN/JPNFoC/SfuYeeYp8yHwl4r6ufXVBbuvYjrjjoP83BEiS37DgKwQQQAABBOIUOFxeKLt/+0D3MXEG0UzfwYlw8jT5zGbqtq2O7FXdtr4a7Ei207s3NzT8/QarUTxiAZLkiIFpHgEEkibgy65SfBCIRkCWXhwxbbxfVno7j4ymh+haDU6GkwMwnN7aLjqdBVo25pVFVXPGAiW4FZMASXJM8HSLAAKuCnjyrhIfBCIU0KrTZDp+Pnb02jUR9hJJ05nM5CXBSXGRNJ7cRv9i9ZMj5eQOz92RkSS7O3dEjgACCCCQWAF9tL940b3bB1Yf6tIQgxPigpPiXIo51liNeSA/OPLtWGOg83kFSJLnpeEGAggggAACMQrIGtpptfSuGCNoquvgpDg5EOO2piqnqJI8cd+jdPX0FA3ZuaGSJDs3ZQSMAAIIIJAigffIEdYWb68290wsmdx9odzZPvddrgYCsm7ry/lieRgNewVIku2dGyJDAAEEEEBABPRF5b7u/+ISxcqtO3+rfZ89f+ebNGMeyRdHnPvlZ77hJPU6SXJSZ5ZxIYAAAggkRsB4+oeVgZ5+lwaUGxq9R5YU3OlSzO2IVbZ7m8x4Sk4p5GO7AEmy7TNEfAgggAACqRfQSi/1jfn7149XdgXkEE9/RtYn73Ql3nbEqY25eu0TIxYfvNIOBTf6IEl2Y56IEgEEEEAg5QKyh/LvyfHKN7vEsPzx4V1am/NdijnSWI0azA2NfC3SPmg8NAGS5NAoaQgBBBBAAIGoBfTZlf6eP426lzDbzxdHfyTt3R1mm262ZaoZXT1NXtiruhl/+qImSU7fnDNiBBBAAAGHBXxlvrXzqBWHuzQEPTEZvMT3sksxhx6rUV9fWyz9JvR2aTAyAZLkyGhpGAEEEEAAgfAFZNnFyj1LDr0h/JajazG3dWyH8v3PR9eD3S3LuuytuaUjV9odJdHNFiBJni3C9wgggMCCAr5Z8DY3EWiDgCTKZ1V6u09sQ1ehdZEfGv2ukhPmQmvQlYYkQ5bD7E/Tj6opV0Imzn0CJMn8JCCAAAINCch/7vggYIGA8byb5Tc2t/47LifMzZw0Z4Ff20LQ6sZcceRXbeuPjkITcOv/XKENm4YQQAABBBBwXECr/kpfzwUujSI4YU4bfZlLMbcUq1HP53ZnvtBSG1SOTYAkOTZ6OkYAAQQQQKBFAa2uKq/Lr2qxlbZWzw8O3yTLLh5pa6cxdWa0Ol1v27Y3pu7ptkUBkuQWAamOAAIIIIBAbAJaHaay2ctj67/JjoMT54KT55qs7kY1o27tKg4/6EawRDmXAEnyXCpcQwABBBBAwBEBWZf86e0DqzsdCXcmzJkT57T6iksxNxKrrLsuedmJP2+kDmXtEyBJtm9OiAgBBBBAAIG6BbRWi6bNUufWveaLw9+Qp8mP1T1QhwpmlH9G5+bx3Q6FTKhzCJAkz4HCJQQQQAABBJwS0OqCHX1vzbkUs2wT42tv6jSlzLRLcdcR6w86i6X76ihHEcsFsvLD+QvLY6w/PKMPU1q9vf4KLpZMznzJPp+ba83A1M4OP+PUuVK1RnTwfflT6YM6ef+ROHigFl+RTd2eqz+8YJ/k5D5fkME9JD+P4a8VNSojxivkRablkhwtV0ofUr85JesRmNIzh3VcXE9ZW8rkn6gMlfp7rpGn4UlZerF98cQrn7XFlzhaE0jUfp/l9YV/o7I6yXsRbpc/T61tbcrdqj12/NpD/OriV9yKurFo/Wp1VfeW0ouN1aJ0XALlgZ5PSd/fiav/qPvtmDZdq58cKUfdT9C+7MrQq7Pe25TRb/M9NaCMep/88nxMO/pOYh+ydGGvNznZM3O6nUMDlF/MMpX+ns3ykKvfobDnCdX/UL44+tN5bnLZMQF5kswHAQQQQKB+gWQ/SVaeJzlLez75p8pbpKfgn/2fF4/p6p5YnHm/XPgz+ec9+2/wRU0BeRq7RC1eFDxJvqxmYYsKyNO66riunlZV3qPyF4bgLw6ufu4mQXZ16uaOO7l/M5x7vFxFAAEEWhRI+Il7vh/rXxhXbi2Nyl/MbpV//jDr++vk6fJNMmEvtzhpqanuK3WO/Jbj3AOwtcXSb+RJ+A0OT9TLemLyLIfjJ/Q5BEiS50DhEgIIIIBA/AJrhkafloMnLlS7pvOyTvqzxpin4o/K7gjkN5zllYHuU+2Ocu7o8q9mLpdfip6f+67lV311vmvLXCwXtSI8kmQrpoEgEEAAAQTmE8iXy6/miiM3dw2OrPeq6o/lhfPH5yvL9UDAc/KJZnAyXXBCnWtzKE/A780PDf/AtbiJt7YASXJtI0oggAACCFgi0Lll+B/zxZHjla8ukmSZfWjnnpdTxo9d4+RL3sEJdXIQxy1zD8vCq8a8sqhqzrAwMkIKQYAkOQREmkAAAQQQaK+APLn766zae4z8ef6e9vbsRm/V6pLgxUcnP5nM5CXBiXVuBK8/367dYNzwSFaUJMnJmk9GgwACCKRGYE1xx5isWT5FnigHOzpMpWbg9QzUUx+rp5iNZYKT6rSvHNhr2PxKfv4Sux2kjT8b7Y6JJLnd4vSHAAKOCwRbwCX408Yt4MJSlOUX16tpc4I8fRwJq80EtLNhR2/XOlfHIWuTP2B77Mbo48bX9Rxle5zE17wASXLzdtREAIFUCrAFnI3Tnn9y5P8tmlb/3tndESJAnfIyfxJBs5E3We4tBIfKWP/yYbAvdbVDbZLfmmVTET5JFCBJTuKsMiYEEEAghQLB2tCOqjlBhv5sCoc/x5DNf5rjotWXdh25fLkcYH671UG+ObgNlYGeS998ie+SIkCSnJSZZBwIIIAAAipIlDN67wmyp/LW1HNo/c4XjzniLS457Fl22G3yYHa1SzHLFnBfLa3Pr3cpZmKtT4AkuT4nSiGAAAKvCbAm2fYfhbVPbB/XZvokWXoxZnusUcc3kV12UtR9hNV+aaDwEaW1cwehyLKLRSqbCZZduHykdljTmKh2SJITNZ0MBgEEohdgTXL0xq33kB+qPJ81/rskcXmp9dbcbUF73okuRF9el1+ljf62C7HOFaNW+vjKQOGrc93jmrsCJMnuzh2RI4BALAI8SY6FvYlOg2Ots9Xq+5uompgqvlLvdGIwHZnb5fU3p5aGHORq1BfKffm3H3SdC84KkCQ7O3UEjgAC8QjwJDke9+Z6Xbul9JA25vPN1Xa/llbm+O0Dqw+1eSTlge5Pyjrkk22Osa7YtPaUJ8sujlGL6ypPIesFSJKtnyICRAABBBBoRSA3OHKdLLv4x1bacLauJG7Taskf2Bp/6dh8QRLkG2yNr/G49NGVxd1fb7weNWwUIEm2cVaICQEELBZguYXFkzNvaEsmXjldbo7PWyDBN7RRx1k7PJO9Q5LkQ6yNr6nAvAvHe7ve0VRVKlklQJJs1XQQDAII2C/Acgv75+jgCFdu3flbZfzg+OrUfeT0OiuT5PJA4SI5hSPY1zpxn6rn3VHO55clbmApGxBJcsomnOEigAACaRXID47+UJZd/N/Ujd/oY20bc7CvsBzrfK1tcYUWj9Y9akXmptDao6FYBEiSY2GnUwQQQACBOAS0nvpEHP3G2af8YtAfZ/+z+5Z4dLCv8Mz+wrNvJup7fXZwxHaihpSywZAkp2zCGS4CCCCQZoH8E5Uho8ydaTKQZHTJC+u6u2wZ89hA9+XBvsK2xBNpHHLE9sxR25F2QuNRCWSjaph2EQhDwH8hY9SKMFqytw2dyVxS6u/ZY2+EyY/M8/37c1tG70/+SBlhIOAZfbWs0/1wmjQms/ooGW8p7jGP9XYf5yt9edxxtK9/vXrfUdsvfbB9fdJTWAIkyWFJ0k4kAt6qqvaryf4xlRdXLpE/PvKJUcD3Zl7Guz/GEOi6jQK5weFieaDnbunylDZ2G2tXWs8kyb+MMwizQXVU9nqbJIZk/0t9NrIctT3WV/hw59BIqv6CMZvBxe9ZbuHirBEzAgjEKMAWcDHih9a18dWNoTXmQEPGN7Ifcbyf8t6ev5QIeuONIp7eq57+VnD0djy902uzAiTJzcpRDwEEUirAFnBJmPiuoeF/MsaUkzCWusag9eq6ykVUKNg3ON0nH8rCweDobT5OCZAkOzVdBIsAAgggEJaAvND2vbDacqCdlXHFGBzTHOwbrGTNR1wx2NGvPrnU1322HbEQRT0CJMn1KFEGAQQQQCBxAh1V//uJG9S8AzJHzHsr4huVRYW/lgS5J+JunGhee/rGfUdxOxFu6oMkSU79jwAACCDQmABrkhvzsrf06i2lp2Q7uBF7Iww1sliS5Epv97slQf50qCNxujE5gnvmKG6nB5Ga4EmSUzPVDBQBBMIRYE1yOI6WtGLUzy2JJNowtF4TbQcHt75j/arDjOdtPPhOuq8ER3GX+3ouTLeCG6MnSXZjnogSAQQQQCACAa3MfRE0a1+TRrV9TfJUZtktsr1lzj6M+COSfbqvHV/Xc1T8kRDBQgIkyQvpcA8BBBA4SIDlFgeROHzBq0496HD49Yeu1VvqL9x6ydJA4QOSIH+09ZaS2UJwCmK1Q22aOaI7mUNMxKhIkhMxjQwCAQTaJ8Byi/ZZR99T55Pjz0Xfix09bB9Y3dmOSPbtB6xva0dfjvexodJX+JLjY0h0+CTJiZ5eBocAAgggUFPAqMGaZRJQYEp3dLRlGLIfsKy7XdGWvlzvxFNXBEd1uz6MpMZPkpzUmWVcCCCAAAJ1Cpin6ixIsRoClb6eM5TSJ9coxu39AjrrZ7xNwZHd+y/xhTUCJMnWTAWBIICAGwKsSXZjnhqK8tmGSjtaeMleLUtgo/sEyznkhbRvRtdDYlvuHdvbc3ViR+fwwEiSHZ48QkcAgTgEWJMch3qkfWq9I9L2LWl87xJJYSP8TKslG+Vlvba+IBjhcNratByR/hflvvzb29opndUUIEmuSUQBBBBAAIEkCxjfT0WSHOUcygto58oyixOj7CPRbWvtKS+zKTjCO9HjdGxwJMmOTRjhIoAAAgiELOCl40lyyGr7mxs/tnC08fTN+y/Y+oX1L2jqo8uLC9fZypfGuEiS0zjrjBkBBFoQYE1yC3hWVpWVurusDCzkoKJak1w1+s6QQw29OTl+/BbtT55ijJoIvfEQG9RKnzdzlHeIbdJU8wIkyc3bURMBBFIpwJrkxE27jvaFNlu8oliTXBrouVTGt8GWMc4VhyTIpUxm8pLclrFt2hjrX5ALjvIOjvSeayxca68ASXJ7vekNAQQQQACBRAiU1ufXK6Ousn0wGeWf0bl5fHcQZ25o5Fp5Sc7uLf/kKO+p7FJ2CbHgB4sk2YJJIAQEEEAAAQRcEpC95DIqm9kkxysvsjzu73YWS/e9HqNs71HNKHOGkkz59Wt2/q8+s9xbeJ+dsaUnKpLk9Mw1I0UAAQQQQCAUgcpA4UpZP3t8KI1F1EiwzMLLTHxudvOdg6P/Ipvh3TL7unXfZ9Ttu45cvty6uFIUEElyiiaboSKAAAIIINCqwMx+vkZ9sdV2oq5/4DKL2X3JGuVgLfX47Ot2fa9X71l22G12xZSuaEiS0zXfjBYBBBBAAIGmBWb28ZX9fFWwr6/VH/N3By6zmB1qsEZZBvDJ2det+17rU8v93adbF1dKArL8hzwls8AwEUAAAQQQcECgsrhwrRwacrTloW5fPLH7gloxdhaHfyZlflqrXPz3vVuCI7/jjyN9EZAkp2/OGTECCLQkwD7JLfFZWFlX/YyFYYUeUqv7JI/3dr1DdrO4MPTAQm5Q+/5ZK7fu/G09zXp7J86Vl/heqadsbGXkqO+ZI79jCyC9HZMkp3fuGTkCCDQlwD7JTbFZXElnvLdYHF5oobWyT3I5n19W9bw7ZJmFbBBh88dszA2N3lNvhJ3PjG+XJ+Ofr7d8fOX0ieX+nnPi6z+dPZMkp3PeGTUCCCCAwGsCvvFTkSS3NOErMjdJgtzTUhsRV5Zd3XYu8/R5jXaTHxz+jtR9uNF6bS+vzXWlY/OFtveb4g5JklM8+QwdAQQQQECeIxpNkrzAD8K+/Xr12QsUseKWp/1zlj8+3NQR4x1G9k5WZtqKgcwbhD5Emewd897mRugCJMmhk9IgAggkW4A1yYmbX0+tStyY5hhQM2uSZ/bplf1652jOskvmf+SKpZ80G9SaodGnjdF/2Wz9dtWTtS4nVPoLF7erv7T3Q5Kc9p8Axo8AAg0KsCa5QTDri0tytN76IEMIsJk1yfv26dWrQ+g+siZeW2bxiVY7kGUXV0tbdh9ZLYP0lb5m5kjwVgdM/ZoCJMk1iSiAAAIIIJBoAW1SkSQ3OodjfYUPyzrkUxut1/byWn222WUWB8a6/8jqAy9a+PXMUeByJPjM0eAWxpekkEiSkzSbjAUBBBBAoHEBo3obr+RejUXVjrrX3JbX5VdVPf0tB0Z5d1dxZGNYcQZHVsuWcN8Jq72o2gmOBB/r7/lyVO3T7j4BkmR+EhBAAIGGBFiT3BCX5YUrvZ1HytPSQy0PM5TwOrJmb90NdWRulyerK+ouH0/Bl/XE5Flhd+1lJ4M1v5YfWS2vGWrz5bHe7uPCHj/tvSFAkvyGBV8hgAACdQiwJrkOJGeKGJ09yZlgWwx0r2SU9TRR6uuWnSz0yfWUjbOMJPEX5raO7Qg7huDIaln52/BWcmHHUbs9nfUz3iazQXXULkuJZgRIkptRow4CCCCAQCIEjKf/KBEDqWMQazePT9QqFuzDqz19Y61ycd83Rt2bKw7/XVRx5IujP5WX+O6Kqv0Q2+0t7ylcE2J7NHWAAEnyARh8iQACCCCQNgH9H9MwYkkqJ+XJa+01yTP78Mp+vDZ/5BjpRdVgX+NoP5mJyU9af2S1EMi8XjxzZHi0HKlsnSQ5ldPOoBFAAAEEyv2Fd0qCsTwVEtrI8csLf8p9PZ8TjxMWLmXBXWMuWv3kSDnqSIIjq2Unicui7qfl9uWo8ODI8ODo8JbbooE3CZAkv4mDbxBAAAEE0iIgW2h9PC1jlbe8XlhorOPreo4yWn1toTI23AuWWeSHRr/brlhyxZGblVG/bld/TfcTHBm+PHN90/WpOKcASfKcLFxEAAEEEEiywL6nbvojSR7jrLHNmyTLLwu62qE2yVPTJbPq2PVtm5ZZzB60uHzM/iOrJWqtz6n0dr97dvx837wASXLzdtREAAEEEHBVYEX2o5L8LHY1/Ebj1tqU5qtT6St8Se5tmO++Lde1UZe2Y5nF7PHKC4KDcu3rs6/b+L3xvI071q86zMbYXIwp62LQxJwegamdHX7m8GSPV57iPKiVqf1CTbIZYh2dbOr2XKwB0HlbBYInpxWjvhi88ZSWjzZ6zp/xl47rWfGqb94lT0p/YbnFttzQyC1xxZgvjny5PNDz++Jk957a8jM97S2VJ98qNqu45iiKfkmSo1ClzdAEOo6Y8vxqsh/2mGr11K4tpRdDQ6MhBBBYUKAy0B0ss3jrgoWSdtPM/Yvga8c5vy9pw41iPPni8H+Ool3atFeA5Rb2zg2RIYAAAghEIGCMvjKCZq1uUk5nm/NJstVBExwCMQuQJMc8AXSPAAIIINA+gVJ/4eOyY9bvta9HO3pasveVzXZEQhQIuCNAkuzOXBEpAggggEALAjuPWnG47ABwXQtNOFlVTo4rH/HsrpedDJ6gEYhRgCQ5Rny6RgABBBBon8CeJYdeL+81pePwkANYtdKPHfAtXyKAQJ0CJMl1QlEMAQQQ2Cfgy+YICf54XiLHV+rrea8ss/h4gmdu/qFpY/9hGPNHzx0EYhMgSY6Nno4RQMBNAdkwLskf30/c+HasL+SVNhuTPG0LjU375qGF7nMPAQTmFiBJntuFqwgggAACCRCQx+KZqay+S54ir0zAcBofgjG+7pj6ReMVqYEAAiTJ/AwggAACDQmw3KIhrpgLl/sLt0oI1p8mFx2Tfqxz8/ju6NqnZQSSK8BhIsmdW0aGAAKRCLDcIhLWCBqVBPk62c0ineuQX/fU5p9f/5L/RQCBxgRIkhvzojQCCCCAgAMCcoTwZRLmnzsQatQh/u+oO6B9BJIqwHKLpM4s40IAAQRSKlAZKJwnQ/9aSoe/f9jGqMnckpH79l/gCwQQaEiAJLkhLgojgAACCNgsUOkvXGyU/u82x9iu2LRW/6QfVVPt6o9+EEiaAEly0maU8SCAQMQCvLgXMXDTzVf6e64wWv9V0w0krqL/D4kbEgNCoI0CrEluIzZdIYBAEgR4cc+2Wdx15PLlew55y+2y3dsptsUWXzymunT3Kz+Or396RsB9AZJk9+eQESCAAAKpFRjr7/53e5T3PwUgl1qEuQd+34ptL7009y2uIoBAPQIkyfUoUQYBBBBAwCqB7QOrD62apdf42pwrgWWsCs6GYHyzyYYwiAEBlwVIkl2ePWJHAAEEUihQ6iv82bTR1ysdPD1O3CnaIcyoebXD33tnCA3RBAKpFiBJTvX0M3gEEEDADQEzoBaNqcJpvtEXyq4Nv+9G1HFFqX+0+skXfhdX7/SLQFIESJKTMpOMAwEEEEigwI71hfxUVn26bNS5WuuVkiDzqSGQVdWbaxThNgII1CFAklwHEkUQQAABBNorUOrrOUkS4k9NafWnQc8kx/X5yw4fD60plh6rrzSlEEBgIQGS5IV0uIcAAggg0BYBeRGvs6qWniynxJ0kHf7RvvXGbek6UZ1o5V+XqAExGARiFCBJjhGfrmsLTO3s8DOH1y7ncolsJnNCpbeb9YOxTuL0ttyWsW31hRAcJpLcc5imsuYd8vP4Yn0W9ZfSnskYrVbIaXgrtK+W+563SlZOHC0tHGmMedu00kfMtMZyivpRZ5UUx61dg6M/nXWZbxFAoEkBkuQm4ajWHoGOI6Y8v7q4PZ3F1Iuv1F0qk9ykKybWhro1ZtFVUuGK+iol/DAR5f3ERLChmvxmsf9j5Mf9wFxY1hrvv8cXzQtoxWmDzetRE4GDBfgv88EmXEEAAQQQQMApAaNMKTc4/LdOBU2wCFguQJJs+QQRHgIIIIAAArUEtDGXyfP46VrluI8AAvULkCTXb0VJBBBAAAEE7BMw5on84Ojt9gVGRAi4LUCS7Pb8ET0CCLRdIHhxjw8C9gho35xvTzREgkByBEiSkzOXjAQBBNoikPQX99qCSCdhCRj1k9yW0fvDao52EEDgDQGS5Dcs+AoBBBBAAAFnBGRP6YnFk9WLnAmYQBFwTIAk2bEJI1wEEEAAAQQCAXlZ7+qVW0ujaCCAQDQCJMnRuNIqAggggAAC0QkYU8wNjVwbXQe0jAACJMn8DCCAAAIIIOCSgBytl9X+R2XLt6pLYRMrAq4JkCS7NmPEiwACMQuwu0XME0D3Wt24plh6DAgEEIhWgGOpo/WldQQQSJwAu1skbkpdGpBRg7nJkctcCplYEXBVgCTZ1ZkjbgQQQACBlAmYVzOe+oDeqiZSNnCGi0AsAiy3iIWdThFAwF0Bllu4O3euR24+ufaJkWdcHwXxI+CKAEmyKzNFnAggYIkAyy0smYhUhWGUuSVfHP1RqgbNYBGIWYDlFjFPAN0jgAACCCCwkIBsZvFwfnCEo6cXQuIeAhEI8CQ5AlSaRACBJAuw3CLJs2vd2IyqZL2JD8p2b751sREQAgkXIElO+AQzPAQQCFuA5RZhi9LePAJG/U5rddLaJ7aPz1OCywggEKEAyy0ixKVpBBBAAAEEmhEwRu3N+tWT124pDTZTnzoIINC6AE+SWzekBQQQQAABBEIV8Ez1Q5IgPxRqozSGAAINCZAkN8RFYQQQQAABBCIUMMaXF/U+mBsq3R1hLzSNAAJ1CLDcog4kiiCAAAIIIBC5gGTHSpkzuwZH/yHyvugAAQRqCvAkuSYRBRBAAIEDBdjd4kANvg5PQDLkT+QHR28Pr0VaQgCBVgR4ktyKHnURQCCFAuxukcJJj3bIwRNko8/sGhr5QbQd0ToCCDQiQJLciBZlEUAAAQQQCFNAEmTPqI90Dg3fGWaztIUAAq0LkCS3bkgLCCCAAAIINCwQbPPmGf9Dnbyk17AdFRBohwBJcjuU6QMBBBBAAIEDBYx5QZvqybmh8q8PvMzXCCBgjwAv7tkzF0SCAAIIIJACAVmAvFnp6oY8CXIKZpshuizAk2SXZ4/YEUAAAQTcEjDq1vzkyAV6q5pwK3CiRSB9AiTJ6ZtzRowAAi0JBFvA8Ue4lgjTWNmo32mlzs4NDv84jcNnzAi4KECS7OKsETMCCMQowBZwMeK72vWjykz9SW6o8ryrAyBuBNIoQJKcxllnzAgggAAC0QvIEdPSybW5wZEr5CnydPQd0gMCCIQpQJIcpiZtIYAAAgggIAIzL+ep6n/tGiz/KyAIIOCmAEmym/NG1AgggAACNgoY84rS6iv54siN8vQ4eJLMBwEEHBUgSXZ04ggbAQQQQMAeATkYZFKeH9+amZi8uvOZ8e32REYkCCDQrABJcrNy1EMAgZQKsLtFSid+/mEbdbvW01/KF8vD8xfiDgIIuCZAkuzajBEvAgjELMDuFjFPgB3dz7yUpzdmtX/lmsHRrXYERRQIIBCmAElymJq0hQACCCCQAgGz0VSrX+16svxkCgbLEBFIrQBJcmqnnoEjgAACCNQtEDw51urOrDJfWVPkyXHdbhREwGEBkmSHJ4/QEUAgDgHWJMehHlufRm2TF/I2Zo35niyreDq2OOgYAQTaLkCS3HZyOkQAAbcFWJPs9vzVFf24MuaHnvF/3DlUeriuGhRCAIHECZAkJ25KGRACCEQrwJPkaH1jat2o5+UAkJ9pre/MF4cfiCkKukUAAYsESJItmgxCQQABBBBoj4BRapc26l5ZSnFvh+/ft3pL6an29EwvCCDgigBJsiszRZwIIIAAAs0LGPOC0vpftDH3G1O9r2uo/OvmG6MmAgikQYAkOQ2zzBgRQCBEAdYkh4gZRVPPSaPbjDHb5FjorZ6vN2d9/19XPTVaiqIz2kQAgeQKJCpJ7lB7npyuLnlPUqfLU74ce5quT+fm8d2V3u7Ezmm6ZtPe0Wo1va3e6Dp8/bNpU+VP8/WCRVjOaO1nPP/lqu+/tGRi70tHPLvr5Qi7o2kEEEAAAQQQQAABBBBAAAEEEEAAAQQQQAABBBBAAAEEEEAAAQQQQAABBBBAAAEEEEAAAQQQQAABBBBAAAEEEEAAAQQQQAABBBBAAAEEEEAAAQQQQAABBBBAAAEEEEAAAQQQQAABBBBAAAEEEEAAAQQQQAABBBBAAAEEEEAAAQQQQAABBBBAAAEEEEAAAQQQQAABBBBAAAEEEEAAAQQQQAABBBBAAAEEEEAAAQQQQAABBBBAAAEEEEAAAQQQQAABBBBAAAEEEEAAAQQQQAABBBBAAAEEEEAAAQQQQAABBBBAAAEEEEAAAQQQQAABBBBAAAEEEEAAAQQQQAABBBBAAAEEEEAAAQQQQAABBBBAAAEEEEAAAQQQQAABBBBAAAEEEEAAAQQQQAABBBBAAAEEEEAAAQQQQAABBBBAAAEEEEAAAQQQQAABBBBAAAEEEEAAAQQQQAABBBBAAAEEEEAAAQQQQAABBBBAAAEEEEAAAQQQQAABBBBAAAEE4hb4/9jmtnl6s5mpAAAAAElFTkSuQmCC;" vertex="1" parent="1">
                    <mxGeometry x="790.5" y="419.78999999999996" width="142.63" height="46.61" as="geometry"/>
                </mxCell>
                <mxCell id="54" value="" style="edgeStyle=none;html=1;startArrow=none;startFill=0;endArrow=classic;endFill=1;" edge="1" parent="1" source="53" target="24">
                    <mxGeometry relative="1" as="geometry"/>
                </mxCell>
                <mxCell id="53" value="" style="shape=image;verticalLabelPosition=bottom;labelBackgroundColor=default;verticalAlign=top;aspect=fixed;imageAspect=0;image=data:image/png,iVBORw0KGgoAAAANSUhEUgAAAUYAAACbCAYAAAAeADK1AAAAAXNSR0IArs4c6QAAIABJREFUeF7tfQeYXVW59rt2PW1aOoR0AiQEkgAiYEdFVJrSAgkl0kSu6I/1en+9cL3Xe8FyERGUoBKKiIio6KXc34YEkEAMID1AQkjPTKacOWe3tdb/fGvvMxkQyMycmbT59vPwnMmZXd+95uWr7yfAGyPACDACjMBrEBCMByPACDACjMBrEWBi5BXBCDACjMDrEGBi5CXBCDACjAATI68BRoARYATeGgG2GHmFMAKMACPAFiOvAUaAEWAE2GLkNcAIMAKMQL8QYFe6X3DxzowAIzAcEGBiHA5vmZ+REWAE+oUAE2O/4OKdGQFGYDggwMQ4HN4yPyMjwAj0CwEmxn7BxTszAozAcECAiXE4vGV+RkaAEegXAkyM/YKLd2YEGIHhgAAT43B4y/yMjAAj0C8EmBj7BdfOu7PW2hVCxDvvHfKdMQK7DgJMjHW8q0uf6xwVieTtltInAlhIp9JCrBBarRFCtGqI2AaEFsLWAjY0lBA6FkrEGtC1SytLA0JpaQkNZQGwYUvf/NrxbFGutAtbJKJpRJPYvKkD+YYS6HRJEKBox3Kkkt4E6D8cu++ei+p4HD6UEWAEMgSYGPu5FBZV9F6/emztN8uWPW9NVxmxV0BkOf9wFiFSaJVSb3oFAQULMZSwoLULDRsCGlooSAHQGXzpIIliuDmBIKyg4NjQtoMtUYKWvMa46BXsrQN86t0feNs7PfFoPx+Hd2cEGIE3QICJsY/L4lGt3Wcr+NDVD6+6a5XKoyoEVLGELiWgLbLyCEoyAnt90o+W/Y/f9+wnYSMCtAWJfHondIyQgJUACrAiG47lIFIxXM+CLyTKHe1oGjMKYvPLmGNtKl/07sM+dLIQD/bxUXg3RoAR2AYCTIx9XCI3VPU51z2w4vpVdgltbhGhlYciQrSNGwwoMvGUITnzCXKiFZBkv6993/uTmE8nKZVqDyB+deg7Ok7BUcpYk0oTuQo4OQ9J3IWCjtFQ6cChTd6yi2ZPuPBoTzzSx8fg3RgBRqAPCDAx9gGkO2L9ju8/uPqB52IPXX4BVS+PWJP7XCO9hExDcpz/8VMQqb3B97S/VrCJKJG6zrBVZnAq+FHKubHQEK4H5bhIujvh2DFGRl2Yqatb/um9Mz50ohBL+/AIvAsjwAj0AwEmxm2AdW1Fn/jzJzYuWpk4LZulCzh5VJVGYkkgnwPiJEujiNTSe71LbVIsr3Oxa//WgCVdaEtDu2HqPpMXLS14iWXORMSofQcyCeF4FkZUOzC5ugVfPmrmez8uxJ/78a55V0aAEegjAkyMbwHUL7V+z1fvfvpPmxrGoUPZEF4RirhLADIHICFL0aGEcg8h6l5ESPkXIcgifGNiFNqCUMIkopVH50qJ0ZOAIx1oCCQOcW8AKw+0xBUc5OrHFx485jOnMyn2cYnzboxA/xFgYnwTzG7V+v3f/uML/2+lU0CnW4KCDw1ynxUk2XJWljZWGoIsxTeKIfaOOb5hjBHQRIIFF1ICOib/2aSygVjD9lwTx7RkNwpxOw5qcJ/47Nxxn/iYEI/1/1XzEYwAI9BXBJgY3wCpX2p9+L///vm7V3rNTZ2ej8RyYSkHZOERLWqyAk22mUhMDpgYtQBsx4HsKkPkinB9C1E1BGwbru8gLpdhOwKjVIBJSRsufs/0QxdwTLGva5v3YwQGjAAT4+ugI0vxJ4+3fXt5l5q9xS0ihmesQU9JYy1GxlIk2Jwstkgu8JvEELfxvSC/W0vYtotEUmbbgnCpDpxOKU2ipVRpw7662v7P75129AlC/HXAb5oPZAQYgT4jwMTYC6pfaX3Ef/7xqd+/6IzMtdmNUMgB5MpqwNESWisklEwmYjTZZAotUsKlp4mlz8CbQ6HgWDaUjE0ni6JviH8dAddSaKxuwQw7qPzTOye9dx5biv3ClndmBOpBgIkxQ+9XWn9g0V9f+eZTiTdnPQqQuUZQyM8QmDEIlXGZHdOyB0hLQllEigrkEg90o9yzUBJ2Ehu3OXEcqLCCsTrBnBweP2fGHhef2CDuH+j5+ThGgBHoPwJ1/En3/2I76xFUp3jl/z79wCq3CZ2lJrSbshy/p0wRIoGmekKyHKmQ2xBj2rpnbEVjNQ5gI6szjlEoFREHXUBSRSHnwu1ow8ElP1548IR3zPO4TnEAyPIhjEBdCAx7YrxN63f8YGnrVSvL8qAtVg5hrgFVIj+dAC7V5SQZ8WVF2qb8hvxpO3OnKcY48I3a/ZIoAgou8gjR2LEJhzV6T82fOfYTpxS4o2XgyPKRjMDAERjWxHif1u/4/D0rHljfOBYhbHRLgcTKQXgCOqHscJoc6dlM77Pp2wNkRozaRAaNRZluwmSvXxuDfJ27XYtP0t4WCUjEgA7REnfhHY3uc6fsO+qsMwucaBn4suYjGYH6EBi2xPgbrQ+79qF11zwWOnO3eCVoYZsyHJmp4qRdLG/gIhvETAbGIG/CjNSdIiLzldBU8O1C1GKRSsLLW4hlAJ0ksBwSi6AkiwXLFVBCwpNltFTbsJ8TVT5xyL4LziqIO+t7rXw0I8AI1IPAsCTGu2N9+PceXf+jJwJ7xma3gMD2shKcXlCmLSxvuZGRSNYibYra+QxhUr2j3UOMng8EVI+Yc+DnXFS6KoDtw/U9xN3d8H2JlqgTB9jJk+cdMfncUwS7z9vCnX/PCAw1AsOOGO/S+vAfPLL6uicr+VnrtQ/pe5DkHtcsxRrifSBGsigFKDFDFTs++cWZN02dMBmxSgHLcSCSGFARhKNN54wWLjxboqljLfazJS5+7z7vYOmwoV7ufH5GoG8IDCtiJEvxysde+dGTgTujVTTCbiiiEtYKtMnDzeDoEykaOxGUsU6VdUhxO5Mcoyw1TRkgbqQMtwRsUxguoWQVtgM4jofGSjtmWeXuBQdNP/sTBfGLvr0y3osRYASGGoFhQ4wUU/zho+sWPVa2Z21AAciXsg6TeogxdaW1IUTSX8w4kphQJaaKx9bUyWJTIyHgWrBFDKfagZEqway8enLhrL3OO40TLUO9zvn8jEC/EBgWxHhvrI/89tK1Vz2ZOPtvEo1IvFyaVyHlBso8D7BzhZCmeKJxmmtaihR4VAqkSmZrBRkr5BqLqEQSkBGKLlBs34CDihYWHDTxAwvy4vf9emO8MyPACAw5Ars9MVLv8w2PvHrz8qo3boPKw2poSNMlYQjPcxAnA+9cEZq6VhwTY9ROvHUcgQRysZNK1zoWKnEANOTgIEZzeysOb8o9ffo+I887rZHHEQz5CucLMAIDQGC3JkZKtFyzdPV1T4TerLVJHqKpESokfa8EOc9BGAQkb5O6wgPYyFokUVmqzNF2Sow0roWmE/gkpKgFIheIKA6pAzTHFby95L1wyr6j/vmcBnHHAC7JhzACjMB2QGC3JcbbtX7/dQ+vvOXpbn9sh9uMKsl7OaSjSA3Q5OqmMmJEiqbLr88Jl61vhSxGc7AloD0LCCPT9+xZNnSiYXkuAhKKQIBmEoSwouCCg6edsaCBEy3bYW3zJRiBASOwWxLj3Vof/t2laxc9Gdr7d+omhJYPaSkj/ACbpvJpQHopMVK2mLYBEKM5TipYtg0VJXAKOQipEUcBcsU8gqAK1yaVnA7MFEH3he+Z+sHThXhowG+LD2QEGIHtgsBuR4zkPn//kXWLlgfO/uulBydXNCMCBFI1HGXmDVhmPgHlSXq68wZEjAqWI6DK3cg1tCCKJRSNOyj6QBLBRYyRQSemRJ3BJ9+17xln+WwpbpdVzRdhBOpEYLcixntjfcR3Hlt7/fLAmrERDUBD0bThpdP4KMlCo0hpPAENWZGpOERdFqNJbcOxLahYQZMLTUWK5KoLiYZyK/U+v3DqgWPOOstlS7HOtcqHMwLbDYHdhhhpHMGPHl3zo2Xd3owNogidL0CTFWhV00JsmtusHFg0fY88aXKrzWD7LPEyIIuReDGG67uIq10Qngsnl4cqd2JUEmGGK+Pz5o6fP78gbt9ub5QvxAgwAnUjsFsQI8UUv/fXV377ROSP2GS3IPQ8020CFQJunMUQfdOFYicwityJQxYkSYrVSYxU1a0knJxAEnTBlQlGyhj7u0jmzd7rtPM40VL3IuUTMALbG4Fdnhh/ofXbb1i6adGTFeuAtdqDLjUgoYrrMIDrWUhUnA6v0q4JKNYemERmUyXaepIvAnQxr+QiCkNYOsSYsAuzfRWdNWPCMac3i//d3i+Ur8cIMAL1I7BLE+PvtT7yWw+9+r2/R7mZG5QP0dBAFTNGQ9H3BeKoYlr1UmKkT5N+Tlv3Mo0Hy9QwapC0g9l6sjEpNFt1FmsSZLWaxww6iwY/B3BciWJ5Mw7KKXXG3Cnv+kSBi7frX558BkZgxyCwyxLjr7R++zUPrfzN36P8mHavEbFwENfcYkqvUMyQRg9oIr03LuA2nSuGCBUEiT6YvmcqzCbZsLSjRakAdt6FLSSiatVIhjm2jyTJEje2gie7jZ7ivlYQn3/ojNMXsCDEjlnNfFVGYJAQ2CWJkWKKVz2ybtHjodi/3WlA1c6liZY32t4iqUJJGIsKtI3QLMUcKUlDWWXT42fOZjsaSVAGkMArFhGFMRBrWPkSVFSF78YYJbsxNejEhe/c96TTfe5oGaS1yadhBHYYArscMRrl7UfX3vX3bm/UWpL0KuQh3yyBYsacvrngrBlfqpQ5XllumqFWmXI3ZaxpiAFZh9XQTPCzHI1YRmnCRuRRFBJNlXWYklTkJUfu954ThViyw94kX5gRYAQGDYFdihhJJefKZau++3joz9qsW6CLPuKECIwqtbetuP161IgYLZ1ACeqAyaexR6OxSKU8UarAE1qwHA/CsSCr3YCn4bkOonIVI2QVBzoVef7h04863RV/GLS3widiBBiBHYrALkOMv9T6yOuXvnLrsoo3ZpPVBOTzZoBf2r5Sx6Q+k50mS9FO9WaNfFgqNJFKkwnYbh4yCGE15IBqN1RnGya3FDGqc0Pbpw+f8YmziuLXO/Qt8sUZAUZgUBHYJYiRlLe/u2zl9Y+HzsxNVjMSr5TWKRIfukYme0AWY4pkLwjSwdGZ8rYyg64EdbVYbioSsaUTDXkXTdV2jK1sxuc+fMAR3Ps8qOuRT8YI7BQI7PTEeLvWR9zw2KuL/lZxZlJMURRHmN5nRAlscm9N3U3mRr/end5WjFELo7JDiWnlhqmeIiWzEwu5OJ0fHVCSmohXSuSbCrA2rcH+doQvHT714yf6PM1vp1jFfBOMwCAjsFMT4/9qPfdbD6+679kkN2qtykOXGtPh9ADynocoCE1/spENq201cuxD4TaV67iJg8QGlBem81tIgEda8GMq1xGoksK3o5HzoNzOVuugortqwQGjLjnPF78c5HfBp2MEGIGdBIGdlhjJUrz+ry/f/kx3fs92txmB5SMiN9cKU5EGU6ZI5GXRv/6RGPsAsAlPRhKO74F0ZRFR9tmCDYGoGpvyHCkVHBkgrzsxMemUnzt4n3lncZtfH9DlXRiBXReBnZIY79X6iO8+uupXT4f+6DbVjFDkIMndtSSUTZadMokRSxMpZmo5r7cY+/hOXMdCTFaoBPyGPMJqBMQx3BFFxO1l+I6NFlnBmMqG8iUfnPnRs4W4v4+n5t0YAUZgF0VgpyPGu7Sefe1jqxYvr3izN6ocLLcRCrbpZDFis07a0WLqDY3bbNdG86WvoF9lOzTGj+KHCnmRRzUITbYbvgA6y/AbfbjlzZjQ3YrL3jPr+FNy4je76Hvm22YEGIF+ILBTEeN9Wr//O4+8/LMnImfUet0A5JuhpEzdZnJ7yW02scNUB5F0Fs3Y0gFai2nNYgzql7YSEp3NIbLJNI0hhEKxsgX7OAE+8bapJ/yTzyU5/VhXvCsjsEsjsNMQ46+0PuD6ZatvfqzsHLjRKkFTyx2JzFqZbBgyPUX6J/Uwk36YqTcc2CAremtEtqb7xbEQRWVYvg/b9RB3tKNFxpjlqo5zZ40/66wWJsVdepXzzTMC/URgpyDGe7WedeUjq299PHRmbbSakHiF9DGo/Y5mtBCDwaeaGlhxess0psAMb+5/w0sPRMYKlRqe7yISAVDpQsHzUKx0YRqijovePe3YM1zxl35iyrszAozALo7ADidGshQXPbbhxse7MGedLkKXSlBEdnEE37cQK5qzR1s6jpSUb9IWFTL5smLsAbNjbcofnS9G3tVo7NyIAzxdPX/uxHmnFDmmuIuvb759RmBACOxQYnxY6wP/femr9y4LnHEbYh92cwtVzJjQn0si3HHFhBCJJ5VRvCHxBnrOVF8x3VLBWXKJa8ZjKiWWDbsy1iZx6hvoKZrz0agDBdfRaKhsxqEl/fxJ+4z7wjmNTIoDWlF8ECOwGyCww4jxd1ofcN3DG+95tKr2bPNLiCwP0rBg7ZakITtDaj1A1yxFw3Sp0Wh+qSFE1CMbJpQLW9HcaBr7HCMRCRxPQEoJLfw0SBlpCM+BThTyjobVtR6zC6p6wZwJp3Hv826wsvkRGIE6ENghxHiP1vv/8JEtP328Kg5c73ioON7WR+hXuU1GjDUtRbIrtQOhbPOZbokZcRCEXXB9H1KlE/2cUg5JZ4xCzgU2v4JDRjpdpx6w5/yLiuKuOvDkQxkBRmA3QGC7E+MvtZ51/d9W3/xMpzd7XeIiKZSQ1Cb1GeOvP9kUcrCTdHSBSGe6mBIesjEpOUNVjrYP2VlGoVhAIiNESQAUi0Y1x7EcNHR3YZYTVs6YOeq081vYfd4N1jQ/AiNQNwLblRh/rfWBVy1/fvHfK+6cLUkjrOJIRDHpIfZ6jv4So3GhiRBJTzEjRjMWNUp98MiG4/qQMoFlwpIJpE5gWxby3WUc2lB8+qQZpX/+FCda6l5MfAJGYHdBYLsR451az/nBEy/+ZlmnNaFVlCD8EZBmqEovdZwBWIxpZtoIKaYK3KSnaNRwEmM06kgh39CASkzF3Aq2DdiVdjTKEHvrEBcdPPX4MzjRsrusZ34ORmBQENguxHif1nO+8+iqu5YHeq82NCLONaczWoisqNOkd7lNvyxGijGmj6CpPcYohaWjCchgpLEFDsUwgwhoKJqOFiuuoLHchv194NxDp7xvYV78aVCQ5JMwAozAboPAkBPjnVof+pPH1l67vGwdtD7xYReaIW2BKCHmotrEWhlNhmk/iJFIsUdP0QkB6obJBLjzcZp8CV0BSW2EUQin6KE5LmNa1InzD5h8/DkcU9xtFjI/CCMwmAgMKTH+WesD/mvp6hueDv2DNkRF2KUiwlBD2RpO3kJEQ6B7jTxNTb++J1+IGB3ppMo7JDQrEiOp6EqyFh0zyyUgV9sVpKcIq3UDZvm64+y3TTzzUywIMZjriM/FCOxWCAwZMf5c6zmLl6/5wbJ2++0dzggkwkurEoWEsjSURZfOhlj1nQtfAz7VKdrCRqKICYkdJWwtUz1F0lHMF5CEMYpULN6xBnMbnPYLZ+115pl1luQ8q3XDamD/zTE03PSWaAgrGav0M6WAajdK0xdqZem0z7ZWT+/pNVsLjoBcdiC1j1MTkAeI9gQi7wANgLNXiDVzc+KFbZ2ff88IMALbRmCbf6jbPsU/7kHK29c+s/nOP6/rmlTx90Bo5dJCbGpeEUna52w4IhtvOkBiNFdOIri5HOIgTl1zmaruOA15JO0dKBTysNrW4YBGgdNmTzzu4jpJ8VGtm+56fvO3/vD82nPjfAuqKuzVVQOImnJ4H4HLGnOoesjUrCtBsrvadOPYmsqRFCzLQhxLo1ZuuzmEkUKiBEYULbjBWjR3teLEmXO/vnC/yV/r42V5N0aAEXgLBAadGO/Q+qAfLl39/b8HzmEbRQHaKUKTniJliIWCpFEBxlhM5zantYcDfUcKLvVTd3ah2DACYUKEIYGCC4QSeUfC6dqEuQVr3ZnT9rjg3BH1FW/fr/XoX23CN373zKvnrilLeA0jocxUrjfetk2SlilGJ0I04QAzy5qIMZ13TVAp0p0kYhQCsQmg2mZAl5AapWobZrhb8N7xI277yN6TP3uoEOsHiiQfxwgwAlsRGFRi/J3Wc65+9JXbn4jcvdfGPrymEQjDJNVTNCQoIKmkxvQtp7NboNKhUwPbFASV50hlRhTYuTwkWY1xCKElmqMyZnhh15lzJ87/ZK4+UiRL8fZVwX/f9vKWha/YRTilRkSUVVcya0scyBOIbDxDVnFkcEkFeOmxzCRX20akJLQrUk1eHcPVGjmlMLJzA46f2PDTM/Yd8/lDhFg3kDvgYxgBRuAfERg0YqTe5x8/uuLnj4fF/VarPFSuCXEcwzJ1hQqKomLahk3V3EJDiUrW20ztgAMlxjRZ4+U8RN0dNOsAdq4EFZTRRHWKsoKLZk85bmGdluKDWo+/aa289K7n1p+7FgWoUkuKJCleeFZPT3d/FxiNZqC+buNGk5J4Roz04SXU6019PQIJyaslVcDXKNF+bRsxwXZw9JTxP50/OfeZQ4TY3N9r8/6MACPw5ggMGjH+y5Mv/Ph3a7oXvpobhza3AYrUbyghQpahibv5KTGSt6gVtEUT/hJoXR8xWpYLJWPYvoCMKvBljBEywt6eap23//iFFzXWZyn+TevmW1d1XvuzVV3zXkERyDX3pFBMF2IQZAo/A1hmRIyaIoqUUCFR3nSWDVnRDk3nIgxdG8ohYd4YTtKFpqAdk0SMD0yceNMJE/OfPUKItgFcmQ9hBBiBt0Bg0IjxF6E+4Zo/v/SLJ3TeDkaORtnUKbrGzU19wEwmjOoWNU35Sy1JaufTA7YYBZAIQx4Iy3AKFkZVO7CPDnHWzMnHnzO6vt7nP2rdfN9LwbW/e3nTvBdFERgzApUqkWEVlinBTGC5uddMKTSF633cKMRAgw8p4ZLUiNForDlwEheWJjeaDGoJ5BVy1VZMiTtw3NQ9b5w/seGzBwqxpY+X4t0YAUagHwgMGjHSNa/r1sdd+8DKX6+0c6g2NyGg2hKRutA9+okmC0N/7VlhSqaCQyRBm+mbNneVFn4LE4M0P6VKYyaNSyo6ZHlS4iItanFzQL5zIw60qm0LZk86+5N1WooPaz327lXxlbc/u3bepvxIdNA8GLJ8yc+1NHxqZVQaCWiuda97602MJhOf3X+vEQw1OTVhbEUSwSALOntMk4yyYCk3/R+GA1MR5ASbMV6X8dGJI286fkrDxe8Tor0f75l3ZQQYgX4gMKjESNe9aqM++9a/r/zaM1ZuSlehwcxlFlYOjrShtWVyuJrMJNFNRYhA4hrX0TOWJWk+UM8ztfclJlstYgEbLhTJhRGhemlWwk40tBZQwiVqQkl1YrrubPvsYZPPWuCI3/YDg3/YlUjxF6vVFXc8s/rM1vxodDt5aFN/mWQmngM7duHIVAxXksVnS2iKp2YtiSappFJX2VjLryNGKsWRVgyV00AYACIPBx6SSgD4OVg5G8qUIAkUgk5MDttx3NSxN546rfiZuUyK9bxePpYR2CYCg06MmeV4zNVLVty10slBNo5CN4UZEwu+4xmLMFIhrEYPqrsTEAVjJnpUf2iI0dra80zK2tqHChNo2zExS0WtLWRNGqNTwrctFMIuTIjb8JkP7POuc4R4YJtP/RY7UEzxlhc6rv3lqtZ57c17oT1x08mEwjxEFgd0YCe5LF5KnJcgsTQ0tSQay48y5anlVyPGreGCrDZR66ymMwRcF1bowNIOPM9GhRL2OoZdcuGV2zA+7MRJk8bceNK0wsWHCNFRz/PxsYwAI7BtBIaEGOmy1yf62Gvuf/a2Z0Rzvuo0IV/MIwokVFyBl/cQ0ggDml9ArmetnMfEHCk7S2dIrSybSnySCMK3oMnCDOn3NpBzYEURRsTdmBy1t1582JSF9Xa0LNF6zO1r4qvuWrHm1JWRDbtlDGREZExee6rOYxTNaiVGWhjxCuPV9/S99HKJjedfc7NrZUppKCAty6EPDcdyYUltRmUnlmusRJNhr7ZjetKBE6bsufikyR5ln5kUt72meQ9GoG4EhowY6c6uDvQx1z7yyi/XuCPc9opEcWQTqt1lo6Dt5xoRk+aDmfaX1TOauyHGpI0iaxaQpLWKxhojEqUUrdkkGqJOzPF02xmzx551frF+9/lXL8ZX3L5qw5lr3SJQakA1CCEoOUT3ZUSALJMHIY6k+zaE2YNgaiHSVlP8oZ97ft9TzJkSrNmojVv6ZkwsGaXKotLu9Fp5EWJU9yacNGHE4vnTG5kU617qfAJGoO8IDCkx1sjxhw+uuO1lr6lQVh5yxSaEVQnfshErBemQCUYkQbFGMhZjQxxGfDYbgGULCzIOYFs2fN+F7O5ALurCATmFc/ebePzZdWafKaZ40+r4qvte3nLKellE6BTNrBjlUk93RtSUJDJzZNIeb026ZobgsqyJ+R25zmn23Qw0NCxJD0UmcS9CrL0fZcGNXUO+kUwbn+0coFo3Yl9U8ZHJoxafNrnIpNj39cx7MgKDgsCQEyPd5XVaH/OdP71w12q7Gd2Jj1xjI4JyBNuzIckSpLsgYjRMkrbF9cgxUALDsiFiCVdouCJAoXsz5jQ7bSdM32vhp+qUDqOY4s0vl39wxyutp661mmA5zYhNrXUC4UvENqn2UDzTT9v3iAjJbDQxx8zyI0tRObBUbbRrWpto3Guzby0T3+udZSQqpA1hCUg6VMVwow5MElWcMGHEjfOmFDmmOCjLnE/CCPQPge1CjHRLP9D62O//ccVv1hT2QlucGoO245oxAz0EYyyszB01o1ssaCIbyzK14m4SoEluwNwG3XnqlD3OOLsl95v+Pe5r935Y68ZbX4p/eO/q1nkvUiywYTRUSDagQN4VqEZlJA5ZeynxpbWYWazQpofIkkCmg6VmTaZ1mbqWnc76n8loNMn2nvikbdoje8qTXMCrtGNK1IYTpo27cd7kAmef63m5fCwjUAcC240Y6R6vCvSx31/y8m9WoQCvZTQ6qyEsiiUaVzMdj5T8AAAYyElEQVSAFpSpzWKLptSFkhA04pTyERJNMSlvt7eetP/4hRc3Fuua5ke9z79dHV/+k+WvXtBWGoUgn0Pi2NCUATHyZQpCaNAQ1zSj3KvkhizAWgsfGYQ9HSxpMPI1LjQ19ZmCdiLGlEDpXKZ0Ka3ogU1dLWE3JuhuHD+hcfFpUxrYfa5jUfOhjEC9CGxXYqSbvbJbH3Pz0hdve04WCknjOESRgAwSFEoxYhlCwYWkzKzl9SRvHRnBiVsxw6ni/xw69bgz6xSEWKb16J+/En1v8YN/P7WjNAWBX0rr0H0B5acxTtNRY5qYs9Y8siNNpwolXSg2mhaok3tNpKezAvSeZIupQE/gWAJJEMBxPdjaRRjEsPwCbA+IKxpuXsDt3oSpshvHTB+3+NSJuc9ynWK9y5qPZwTqQ2C7EyPd7vWJ/ujVf3rptyuSPFRpD1QSjZKfIJEBgljCKjZCxekMF98RyHW3YpJVxqfeNeW4T4r6ep+f1HrsHS8E/3bTky+e31Ych7IuIrE9WLaE9BWQp7SzlYY6KfBH/2XZ5rSFLy0piqlIXWtYWdKFstRbO3PoKVNLkSxQ13UhE3oeG47nIQrSeTf5og2/0oGx4RZ8fNq4xadMYVKsbznz0YzA4CCwQ4jRkGO3PnbRw6t+81JuFDYlNhzq+/AckHZCVK0i15hHUi3Dle2YpqobL54z/ZzzG+sryXlR66afrMKimx95/uRNVgG61GJcWtI6TKgGxxOAR+IXFEvsUY5Nc0FZjNC08FmyR5xWKH9rTNHUYKaJlnT/rK3RcpDQF0aD0vjOxoemjhaaP3PCtPFXfXSK+9XDhOgcnNfKZ2EEGIF6ENhhxGgSMt362G/95Zk72pv2dBOrCe2dEfwmD3EUwFdVNKgu7JULWk+etc/n/7kkbqjnQYkUb30+vmLxU+vPX22VjDwZCb8SecU0a9qEEWm2KinaeGmRNW3ZdFfjLpsyonQ8q2UsQgoS+ma2jKmzNLHSdCCX6Q6kf9ouIkmtfRmzytgI0Ra1wOjudnxswqgbztun4eL9hOiq5/n4WEaAERg8BHYoMdJjXBPqE777h+V3to6YjtbYg68EcqqKotqEKXb3hjPm7HPOBU2539XzyCamuAb/ftvf1py/smLDbx4DIUntO0HsUnZZw1VO2nttkcyX8eHJ880S5sokSUymmWS1KZmSkMo29X676e966SkaYpSWSbZQJFLT+XRo9BSbyNrctB7jHYEPTx5/w9mTC5ewSk49b5ePZQQGH4EdToyGHBN9whW/f+6O7oY9raSi0KAD7KE2vHz+kQd+8hxX3FfPY1NM8bYV1e/++Mm1p27MjwacEpIgQc5zEIYBjByk0MglNEKL1CNp/AK51J6ZLkg5cpNsIUKsza02hiERH5XfUNmNgjKF6rU2PyLGtK6RaBcu1RrFEKSnWNmCiTre+KFJE/7nuKnFS97F0mH1vF4+lhEYEgR2CmKkJ/teok9Y/JeXb2+NPacUh7jk/VOPWpgT/1vPU1Od4j2rccXNDz11wRq7BWgZizARaRmODGHZNlTimH5sl2w7HZtWv5j6n8nKI+EKn+ooU3HdrfWW9EWqCmSr1IU2WWqzX9reaJNqEJXk1Gq+XQ2/shGTonZ8bO8JN8yfyJZiPe+Wj2UEhhKBnYYY6SGv69Qf+92DT19z4gdmnn+mU1/2mUjxD6+oK3645NkLOhvHoWrnEVNBOY0joAl8eQ8ySiBU0XjHllEaJ2KUPRP7TGF3MZ+KR9TGDlC7Nn1v6i3JMkw7dQwB1tA0rnTKiNKm4nQNO+zAeFXGMXuNuv7YabnPf5AFIYZyXfO5GYG6ENipiJGeZK3WhT2FqNTzVDT3+Y6VuHzRX565sK1pMjrdPGBXDfHZVMBN6RNDbA6EEsYlJlOPXGbzk0GlNg06nVlteTYslwQlFKTJNqfKug5sJFECeLl0hEMYwHIE8rZAJeiGncvBDyuYEIf48KSxi+ZPs7/AKjn1vF0+lhEYegR2OmKs95FNR8uKrqtvfOjFBcGYfbBB5ozVBkE9z2Hq+pIlRzNoTNF2bzLMCPH1N2FpQ4pEeNqhBA116EiabQpIDdctIM7aHD1fIA4C6KSCloY8VFcHRocVHD990nUnT7a/wCU59b5hPp4RGHoEditiJFK8ZU109S2PPreg225GZJWgKI5ILXg9c2VIKDZtz6MYIFmJW7tVsjnXPbjTjGcaRJCW2ghHQLgkmEs6jNQqmJKjcKhtURvhXDPnhkp9VIhS1I29ZYCj9hx93SnT/S+ypTj0C5qvwAgMBgK7DTGakpznW7/zs1c7F7xqNSKhdDORVa3eUFMyxOkhQTPVNZsxkwo+ZFs2e8Z09FHYkOa5GLVtKkwUpvibrEdyrw23EjkanUgiT1L6TmXHPBlgbKUdp+897ltHT3Iue58Q5cF4YXwORoARGHoEdgtifErr0o2rq/9127IVF621mmGNHI+A5qVQYoQKro0cYtr3XNN5rBEfCVekDFiTEKMcSir6UCNGc6gRh6ATkSyQZSxH4QooHUJQ7DGOTImP63uIN7diko5w7JSxP5g32friO7l4e+hXMl+BERhEBHZ5YqTs869XdH7j9qdWX9Tqj0S3LpiRo15TI6KuStbB0ksPMS1cTKcP1tzobPJgOmIhJcgaMdLPqducESNZhzQ7ldoGXbIgFSwStCUJoDCAI2PsJTSOGT/2mnlT8WUmxUFcrXwqRmA7IbBLE+NTWo+45WX1n3c+vfL8dVUHMtcI4XqgprtqNTLkGNMcaDPdj7LSptYmU+KmuGNWYvM6YkxJMSVIU5pjctC1LDV90n9kOQogR3WOCTw7gtfdhj1UjI/sPemaMyZYX+GY4nZaxXwZRmCQEdhlifEFrRt/+XLyr1f/9flL2kvjjFwZxffCJISwHTi5BlSrEsK2exEjJUuov9mGILea0jA1VzqbVZ1NXTHEmIrIZhqNZt9UHzIVrs2O9Sw4VLydtGKiCPGRyXv898kTnEs5+zzIK5VPxwhsRwR2SWKkOsWbVqy98qfLV36itTgbnSjCJg0GnVDXM2wrhzhQ8GkaoSnczrLHZgohmYPkSqcutfm3UcTJFHR6LMUsW00pa3Kb6TMhy5PKfGhmV5zVLlpoymmUul7FKXMmXHXcHvgXTrRsxxXMl2IEhgCBXZIY/6e1ctj3li/77eNhfuQmewZiJw/EnXBcB0lFwm9ogB0BlXIXUCS3V6bJF1O8/QbEmFmLJraYWYo9bjbVQFarQL5gLFFdIZfcgmf7SKIYWko06gi5jS+uufzst33obF88NQTviU/JCDAC2xGBXZIYCZ9ruvUJV/952Z3P6TGQ/gggiuB4eSSk/N1Zhl0owZURoKqm1CY0Rd5ZbJBGDEjXJFiUGaeQ6SdmwJu+FlPsmIrRGouRynG0Nsalk2iQ5ETRslFSGqsevL8bq1fYB08ZteKmy049aqYQ67bjO+RLMQKMwCAjsMsSI+Fw+Ra98MePvfjjl6skE9aCSGYjEaSE4ziwosCIQxDxVcwoGSo8JPGHra2A0mRa3oQYCR2a/1LIQQaBId+848GWGlaYoAiJdcseAzZuTNDVCb/S5nxwzqQ/XvrpM+cfMprJcZDXKp+OEdhuCOzSxEgoXblZn3nN/X+9YWPDFNFeEcjlRsBzbJTLHaY427HTOGJklGNrqjhkAaZyY7XBMkZ01mzUD539mLbIACQ0KzVytgU/lvCoFbC7itaXXoR64RljTVohpX9i5ESAIw+afv8Xz//YWYe3iJXb7U3yhRgBRmDQENjliZGQuCHWR/3f25beUxkxRVSliyrlSPK+4T5Lpa4yaSYaV9p0wBAJ1uZXb50NnSaoa8RIWeeaYo4CqhU0+3kUtULY2or2V9chef5ZgHqv21qRaxwJFSeIgi40egr779GAK//twqlvbxYvD9rb4hMxAozAdkFgtyBGQuoXgf7Q1+5Yfs/qEXuhS+cBn7LHAogjIyumtJt2vZgnTmCb+SvZSAOqUexlMRqT0eybjlIt5POIOttRgoBfqWLDM88C69cB3RUaUAMnl0fSXUa+0ICoGhoLs2CHeNdBk5d84YKT571vpHh1u7xNvggjwAgMCgK7DTESGrcE+kNfvfuFe1a5jZB+UyodpigjbcFSLjX6ZZP8IghS26GybRpnQDNbehdwG2hNH6DZx5MKfhyjUSus+/tTUE8sBxxS+HbSEh5K8lgCQlIZkG/im1G1HXkvwHHvnnnv/zn9mHMPY3IclAXLJ2EEtgcCuxUxEmDXl/XR379/5d3PJJ6ZF202KuiOHeRcH7EEEisEXBKsTZCLTFYGAbEgqeLkiewkQCK2lgdLCjhBhFEQ2PTUk4iefw6odgM5P5Udo+PMwCwiWdtYpqm1SeHJKny1BQfvPfrFK79wzpGHjBCvbI+XytdgBBiB+hDY7YiR4PhJWR992W//dvfm0mgE+WYk0jHDrmSQmPyLchR0wYIOAvjShWt7CIgPqd+5prSTaDhSoElYKFUjrHvib4gefhgoFeHncwhDIlcv7YDJWghJykzBSa1NE8+UplVQda7FMe884IHLLj7ptNkFdqvrW7J8NCMw9AjslsRIsN0c66Muu3PZva8W90TVHwmUQ1OP2JR3EEUhquT95nJQRoGHhCHSaYEmOUPSYULAr3ZjXKUTrU8sR/mZp4CONmDUGNj5oklUm/ZCKx1xQNYj0SLJTZC/nqr4pOU+roiQS7rxzgOnLvnml06dPzMvVg39q+UrMAKMwEAR2G2JkQD51gY9/zt/fPzmLU17QfmNiJWGKnegUCghqGiIXA7SVUBCbrWGoFijspCzXOSRoNC5BR2PPoDyQ38xWewx48ejAy7CWMP3GxDHGooKyk3iJjG64MIMTE2FcCl2KZVAIZdHWOmAn5Tx/oOmLbns4lPmH9TC5DjQRcvHMQJDjcBuTYwE3r+tCr+4+JFnL28fNRGt5QRwixDahiuBGBI6byY/A9KjL0x5T7NQKLSuRbzyOWz48x+Arg7A99AwciyUW0CobQjHhbDzSJKUAIkYqfWQJknX9BzJrZaJA7i+qYP0RIKiasdhM8c/dOklp83nUp6hXt58fkZgYAjs9sRIsPwo0B++5Jb7/8eZeiC6VAFRd4R8oYRq2AnYpNloA0kRbgK0CIFi12ZsefQBtC/5kxG7zeXyCBIFlJpRbBhpMtIBeeBEjpKIkYZrZS2EWX1kqhBOI1gLkKECcg2ADOCpLoxwIxy839iHvvZpJseBLVs+ihEYWgSGBTEShD+J9dH/eddTd6/Oj0NV0EQ/y1TcSNVtOleEyqFFAy1bWlF9ajnWP/JnyBXPw91jAmIrD1CSZsxesDwfWpDDrKGlgkujDwwx0pCsWp1kNofaTDvwoMyIBfqdBglE5jwJO+nCUYfOeOgrZ39swdvGipeG9jXz2RkBRqA/CAwbYjRu9cvhF69/7IXLNxdGIXDzUNTKJxTsKEYOGo3VbkTLl2HTn34PrF+L0rixKEcaKI4EpA9r9B6wXA+Kah8hYQmdFYorSGFn86ZJr7E2XZWmCCo4rockjmHZtknQUEImSQI02THeP3viQ1+66GR2q/uzanlfRmCIERhWxEhYfv2lzi/c8MgzV6zNj0XgtwCxhRGOQKl7LdYvXYLw/j/D9BTa+VSUluZFl5ogiiONeo+Ea4R2zCZoNgyNZaWBWDSNkGKNRIzpQKx0jgz9rtZpk7rXpM1D8UdbR/CjzfjoO2Y/eOn5xxy7f5NoG+L3zadnBBiBPiAw7IiRMFkU6A9e/tsn79vij4bUJXjd3cDqx7Hxf+4EtlCipQh4jSiM2hMhTf6zPBNPJPc7UU5Wt0ilOqRua+p2svJHql10TNEOBBEk9WdT62EEW9HABZIxcyCFCyWoZVHBo2FalQ346BGzl/zrhcefMZt7q/uwbHkXRmBoERiWxEiQ3qL1+75569/+0C1G4oXHn4zwp/s8lHyg3InGSdMQgeKQLoTlINEKUidmvrSlaNK0YyxHUy1uCsJJITwBVf5QGFHDQUxWo4k5pj3ZQAhbk4Vpme4YScRoOmQSIGhHkxPjnbOmPvitL548f0aeVXmGdtnz2RmBt0Zg2BIjwXJzqz7si5ffeM/aJcu90uSp+bi7DK9QRDVJkEiaHe3DyJEpCS2oRZDmX1kQwoVWjqlcpFGqhhhlAldLY0TSLJmEki4mU01XImKMYelU95HcbYlM5EJoU81jh1VYQRveM2fqkm986fQFc5kc+W+XEdhhCAxrYiTUr7z/hQXfuu7WRes7VE45BbheCcqyyeNFIjWQCFhCmMigsFL5Mq0FnNiBpLiim2WbVQLbdL+koxOkyMZq9Wg7pmrg6QTClDFNRY9UsHwXKg7hiwRO1In3zp2+5D+/esqxBwqxZYetDL4wIzCMERj2xEjv/kcPvHTKpdf+9JZOmXcq0jfjVw1ZkXKOSaTYcBQNx6Lsc0pwNrnUwjbl3KmUGW3pUK00KbN1VRnLsUfWLPveJGYA27YhQxKQtFPPPKqi0Ynw/oP2XfLZBcfOf8ee3CEzjP8++dF3EAJMjBnwi5e+etKnv/btnzqjprltAQlDuIBLorZEYER4GekZrUaaKU01ihp2Ik2yRVIG2yiE1wgygaUlaoXeCjYkJWRoM7Nk0vP6joOQhm3RCT0XCEJYdoKCquCot81c8pULjj+dVXl20F8HX3bYIsDE2OvV37Rsw4kXfu2/f4amvZxykiZfjMotidoqKruh6KBtjEJJSRWh4JK7TRFEEpMwxJgVMerItBdSwoXilFTnSEmZNO64lWyFlLAsC8JKiZP40nYsyHIHWvwIxxw2495Pn/nR8w4dKVYP21XKD84IbGcEmBhfB/h1D2848avfXnTbFtFkx04RmlzpKDIlN45tm5ggJVwo8WI7DnRMvzMFOz06jOkXlKLu7VJTTDGzKDM3mo4yo2iy4ykumbru6X62qqJBduLIOZOXfOWik9ly3M5/HHy54YsAE+MbvPubHq+ceMGXv3FrmG9xnUIzQmrpo6yzayMOqsgViwhIt4ysSM/LRiBkpTtGioy6W/rw2UOBKbVuLRDP0tlaIidCuEErPjh37wcv+8Kp8w4osOU4fP9c+cm3FwJMjG+C9E3L2k/8yhVX37YxsO3IbYTIl7Ke52xqILUS2iQrRi51NojaFDFSDLKPn+baFHfMXGtqMzSzrk0gMr0zlcBREQo6wJGHTL/36xeffB6T4/b68+DrDFcEmBjf4s3/eMmqky773o23bow8J86PRlIOgGJjahEGnXBc1xR/p1npWoN0fz5rxEifVOsoYWtK2qhUy9GogDuwKGOtYqDSig8ePP2Br39+3vxD8jwmYbj+0fJzDz0CTIzbwPiGJatP/OI3f/jTDn+MF7pNRrORZsPYIoEsd8Lyc6mFR+U4ppSnP5/Ep5llaLpiJBwdGT1HQ5WCaiWp+jubIyMDNKILh+839oHvXLrg+P0F91YP/Z8IX2E4IsDE2Ie3fvszlY8v/NIVPw+8FtsqjkBU7jbub76YRxgSUw5860nIGOc5FZsgYiRvXAkHiZ2Hphin48POuUDXRkOOHzh4+gNfuuDj87mUZ+DY85GMwJshwMTYx7Wx+LG2BZ+57L8Xx7kRViA80q+FcDwITfHEWv1iH09W200QAZJ1mI5vJcvTFIab79NwpbY8aBptaNnpuNZyB1wrQkEEOPqI2Xd/buGHL+BSnn7izrszAttAgImxH0vkhqWbz/zyN65cXHUaELslVCJtOlfSYdUD2IyeY+o2UzwxlSPrTbLp76j0x8vlEHV1wS/kARVDxRGKugtHz530p3/51IIzD+A6xwG8AD6EEXhjBAb4Fz184bx16dozPvcfV97YoQsQhSZEWUPMQBChiYKvJ0Yq8k7JMU3iUDKGGg9rLjZZllQsTiIVBdmF0dF6vHv/CQ9/5z8u+dBIIToHch98DCPACLwWASbGAayIny199cwf3nbPVzuViigznRXYEJa1/3qf9TXf6deZlxYJS2R5beNOwxE0JkHDoSgjNRJqR0faUbESRiLXQWC5iKy88FQgm4NW0WRVRrzv8EOuvfDUj146gMfhQxgBRuB1CDAxDnBJPKp1YaSpMjRCPEaWlk5FE6lrp+w1AabnKq29ft/70qNfdx+bev17ZCaN29s43QSQoiNFHunaVgmQo4XoGuDj8GGMACPQCwEmRl4OjAAjwAiwxchrgBFgBBiBt0aALUZeIYwAI8AIsMXIa4ARYAQYAbYYeQ0wAowAI9AvBNiV7hdcvDMjwAgMBwSYGIfDW+ZnZAQYgX4hwMTYL7h4Z0aAERgOCDAxDoe3zM/ICDAC/UKAibFfcPHOjAAjMBwQYGIcDm+Zn5ERYAT6hQATY7/g4p0ZAUZgOCDAxDgc3jI/IyPACPQLASbGfsHFOzMCjMBwQICJcTi8ZX5GRoAR6BcCTIz9got3ZgQYgeGAwP8HoH4x9dbfgocAAAAASUVORK5CYII=;" vertex="1" parent="1">
                    <mxGeometry x="890" y="61.5" width="147.23" height="70" as="geometry"/>
                </mxCell>
                <mxCell id="56" value="Flutter&lt;br&gt;" style="text;html=1;align=center;verticalAlign=middle;resizable=0;points=[];autosize=1;strokeColor=none;fillColor=none;" vertex="1" parent="1">
                    <mxGeometry x="890" y="120" width="60" height="30" as="geometry"/>
                </mxCell>
            </root>
        </mxGraphModel>
    </diagram>
</mxfile>